# xmcd CD database file
#
# Track frame offsets:
#	150
#	74196
#	104795
#	128443
#	162503
#
# Disc length: 2474 seconds
#
# Revision: 0
# Processed by: cddbd v1.5.2PL0 Copyright (c) Steve Scherf et al.
# Submitted via: CDex 1.51
#
DISCID=4a09a805
DTITLE=Gary Bartz NTU Troop - Harlem Bush Music - Uhuru
DYEAR=1971
DGENRE=Jazz
TTITLE0=Blue (A Folk Tale)
TTITLE1=Uhuru Sasa
TTITLE2=Vietcong
TTITLE3=Celestial Blues
TTITLE4=The Planets
EXTD=YEAR: 1971
EXTT0=
EXTT1=
EXTT2=
EXTT3=
EXTT4=
PLAYORDER=
